<svg xmlns="http://www.w3.org/2000/svg" xmlns:xlink="http://www.w3.org/1999/xlink" fill="none" version="1.1" width="14" height="14" viewBox="0 0 14 14"><g transform="matrix(1,0,0,-1,0,28)"><path d="M8.72266,27.7539Q8.44922,28,8.09375,28Q7.73828,28,7.46484,27.7539L4.18359,24.4727Q3.9375,24.199199999999998,3.9375,23.84375Q3.9375,23.48828,4.18359,23.214840000000002L4.62109,22.777340000000002Q4.89453,22.53125,5.25,22.53125Q5.60547,22.53125,5.87891,22.777340000000002L5.98828,22.88672L8.88672,19.98828L8.77734,19.87891Q8.53125,19.60547,8.53125,19.25Q8.53125,18.89453,8.77734,18.62109L9.21484,18.18359Q9.48828,17.9375,9.84375,17.9375Q10.1992,17.9375,10.4727,18.18359L13.7539,21.46484Q14,21.73828,14,22.09375Q14,22.44922,13.7539,22.722659999999998L13.3164,23.160159999999998Q13.043,23.40625,12.6875,23.40625Q12.332,23.40625,12.0586,23.160159999999998L11.9492,23.05078L9.05078,25.949199999999998L9.16016,26.0586Q9.40625,26.332,9.40625,26.6875Q9.40625,27.043,9.16016,27.3164L8.72266,27.7539ZM4.56641,19.87891Q4.29297,20.125,3.9375,20.125Q3.58203,20.125,3.30859,19.87891L0.246094,16.81641Q0,16.54297,0,16.1875Q0,15.83203,0.246094,15.55859L1.55859,14.246094Q1.83203,14,2.1875,14Q2.54297,14,2.81641,14.246094L5.87891,17.30859Q6.125,17.58203,6.125,17.9375Q6.125,18.29297,5.87891,18.56641L5.82422,18.59375L7.4375,20.20703L6.20703,21.4375L4.59375,19.82422L4.56641,19.87891Z" fill="#000000" fill-opacity="1" style="mix-blend-mode:passthrough"/></g></svg>