<svg xmlns="http://www.w3.org/2000/svg" fill="none" width="20" height="16"><path d="M7 8q1.094 0 2-.531.906-.532 1.469-1.469Q11 5.062 11 4q0-1.063-.531-2Q9.906 1.062 9 .531 8.094 0 7 0 5.906 0 5 .531 4.094 1.062 3.531 2 3 2.938 3 4q0 1.063.531 2Q4.094 6.938 5 7.469 5.906 8 7 8zM5.562 9.5q-2.343.063-3.937 1.625Q.062 12.719 0 15.063q0 .406.281.656.25.281.656.281h9.157q-.156-.406-.063-.875l.469-1.875q.156-.531.531-.938l1.281-1.25Q10.75 9.563 8.438 9.5H5.562zm13.625-2.125Q18.782 7 18.313 7q-.5 0-.906.375l-.906.906 2.219 2.219.906-.906Q20 9.188 20 8.688t-.375-.876l-.438-.437zm-7.437 5.656q-.188.188-.25.469l-.469 1.875q-.062.281.125.469.188.187.469.125L13.5 15.5q.281-.063.469-.25L18 11.219 15.781 9l-4.031 4.031z" fill="#dee3ed" style="mix-blend-mode:passthrough"/></svg>