<svg xmlns="http://www.w3.org/2000/svg" xmlns:xlink="http://www.w3.org/1999/xlink" fill="none" version="1.1" width="15.75" height="14" viewBox="0 0 15.75 14"><defs><clipPath id="master_svg0_34_5416"><rect x="0" y="0" width="15.75" height="14" rx="0"/></clipPath></defs><g clip-path="url(#master_svg0_34_5416)"><g transform="matrix(1,0,0,-1,0,28.6015625)"><g><path d="M15.7227,21.30078125Q15.6954,20.94531125,15.4497,20.69922125Q15.2041,20.45312125,14.8492,20.42578125L13.9757,20.42578125L14.003,16.05078125Q13.9757,15.94141125,13.9757,15.83203125L13.9757,15.39453125Q13.9757,14.92968725,13.6482,14.62890625Q13.3479,14.30078125,12.8839,14.30078125L12.4471,14.30078125Q12.3925,14.30078125,12.3653,14.30078125Q12.3107,14.30078125,12.2561,14.30078125L11.3553,14.30078125L10.7002,14.30078125Q10.2361,14.30078125,9.93587,14.62890625Q9.60832,14.92968725,9.60832,15.39453125L9.60832,16.05078125L9.60832,17.80078125Q9.60832,18.18359125,9.36265,18.42969125Q9.11698,18.67578125,8.73484,18.67578125L6.98787,18.67578125Q6.60572,18.67578125,6.36005,18.42969125Q6.11438,18.18359125,6.11438,17.80078125L6.11438,16.05078125L6.11438,15.39453125Q6.11438,14.92968725,5.78683,14.62890625Q5.48657,14.30078125,5.02253,14.30078125L4.36742,14.30078125L3.49393,14.30078125Q3.46664,14.30078125,3.43934,14.30078125Q3.41205,14.30078125,3.38475,14.30078125Q3.33016,14.30078125,3.27556,14.30078125L2.83882,14.30078125Q2.37478,14.30078125,2.07452,14.62890625Q1.74697,14.92968725,1.74697,15.39453125L1.74697,18.45703125Q1.74697,18.48437125,1.74697,18.53906125L1.74697,20.42578125L0.873484,20.42578125Q0.491334,20.45312125,0.245667,20.69922125Q0,20.94531125,0,21.32812125Q0,21.68359125,0.272964,21.98437125L7.26083,28.08208125Q7.56109,28.32808125,7.86135,28.30078125Q8.18891,28.30078125,8.43458,28.10938125L15.4224,21.95703125Q15.75,21.68359125,15.7227,21.30078125Z" fill="#9CA3AF" fill-opacity="1" style="mix-blend-mode:passthrough"/></g></g></g></svg>