<svg xmlns="http://www.w3.org/2000/svg" xmlns:xlink="http://www.w3.org/1999/xlink" fill="none" version="1.1" width="14" height="14" viewBox="0 0 14 14"><defs><clipPath id="master_svg0_1_20923"><rect x="0" y="0" width="14" height="14" rx="0"/></clipPath></defs><g clip-path="url(#master_svg0_1_20923)"><g transform="matrix(1,0,0,-1,0,28.6015625)"><g><path d="M7,14.30078125Q8.91406,14.32812505,10.5,15.23046925Q12.0859,16.16016125,13.0703,17.80078125Q14,19.46875125,14,21.30078125Q14,23.13281125,13.0703,24.80078125Q12.0859,26.44138125,10.5,27.37108125Q8.91406,28.27348125,7,28.30078125Q5.08594,28.27348125,3.5,27.37108125Q1.91406,26.44138125,0.929688,24.80078125Q0,23.13281125,0,21.30078125Q0,19.46875125,0.929688,17.80078125Q1.91406,16.16016125,3.5,15.23046925Q5.08594,14.32812505,7,14.30078125ZM5.90625,19.11328125L6.5625,19.11328125L5.90625,19.11328125L6.5625,19.11328125L6.5625,20.86328125L5.90625,20.86328125Q5.30469,20.91797125,5.25,21.51953125Q5.30469,22.12109125,5.90625,22.17578125L7.21875,22.17578125Q7.82031,22.12109125,7.875,21.51953125L7.875,19.11328125L8.09375,19.11328125Q8.69531,19.05859125,8.75,18.45703125Q8.69531,17.85547125,8.09375,17.80078125L5.90625,17.80078125Q5.30469,17.85547125,5.25,18.45703125Q5.30469,19.05859125,5.90625,19.11328125ZM7,24.80078125Q7.38281,24.80078125,7.62891,24.55468125Q7.875,24.30858125,7.875,23.92578125Q7.875,23.54297125,7.62891,23.296871250000002Q7.38281,23.05078125,7,23.05078125Q6.61719,23.05078125,6.37109,23.296871250000002Q6.125,23.54297125,6.125,23.92578125Q6.125,24.30858125,6.37109,24.55468125Q6.61719,24.80078125,7,24.80078125Z" fill="#000000" fill-opacity="1" style="mix-blend-mode:passthrough"/></g></g></g></svg>