<svg xmlns="http://www.w3.org/2000/svg" xmlns:xlink="http://www.w3.org/1999/xlink" fill="none" version="1.1" width="13.945525169372559" height="14" viewBox="0 0 13.945525169372559 14"><g transform="matrix(1,0,0,-1,0,28)"><path d="M4.49416,27.3164Q4.33074,27.726599999999998,3.97665,27.8906Q3.59533,28.0547,3.18677,27.9727L0.789883,27.3164Q0.0544747,27.043,0,26.25Q0.0272374,22.83203,1.66148,20.07031Q3.29572,17.30859,6.04669,15.66797Q8.79767,14.0273438,12.2023,14Q12.9922,14.0546875,13.2646,14.792969L13.9183,17.19922Q14,17.60938,13.8366,17.99219Q13.6732,18.34766,13.2646,18.51172L10.6498,19.60547Q9.9144,19.85156,9.39689,19.27734L8.30739,17.9375Q6.86381,18.62109,5.71984,19.74219Q4.60311,20.89062,3.92218,22.339840000000002L5.25681,23.433590000000002Q5.82879,23.95312,5.58366,24.6914L4.49416,27.3164Z" fill="#FFFFFF" fill-opacity="1" style="mix-blend-mode:passthrough"/></g></svg>